<?xml version="1.0" encoding="UTF-8"?>
<svg width="64" height="64" viewBox="0 0 64 64" xmlns="http://www.w3.org/2000/svg">
  <!-- Background circle -->
  <circle cx="32" cy="32" r="30" fill="#8B4513" stroke="#654321" stroke-width="2"/>
  
  <!-- Board shape (English board outline) -->
  <rect x="24" y="8" width="16" height="16" fill="#DEB887" stroke="#8B4513" stroke-width="1"/>
  <rect x="8" y="24" width="48" height="16" fill="#DEB887" stroke="#8B4513" stroke-width="1"/>
  <rect x="24" y="40" width="16" height="16" fill="#DEB887" stroke="#8B4513" stroke-width="1"/>
  
  <!-- Pegs (circles) -->
  <circle cx="32" cy="16" r="2.5" fill="#8B4513"/>
  <circle cx="16" cy="32" r="2.5" fill="#8B4513"/>
  <circle cx="24" cy="32" r="2.5" fill="#8B4513"/>
  <circle cx="40" cy="32" r="2.5" fill="#8B4513"/>
  <circle cx="48" cy="32" r="2.5" fill="#8B4513"/>
  <circle cx="32" cy="48" r="2.5" fill="#8B4513"/>
  
  <!-- Center empty hole -->
  <circle cx="32" cy="32" r="2.5" fill="#F5F5DC" stroke="#8B4513" stroke-width="1"/>
  
  <!-- Additional decorative pegs -->
  <circle cx="32" cy="12" r="1.5" fill="#654321"/>
  <circle cx="28" cy="16" r="1.5" fill="#654321"/>
  <circle cx="36" cy="16" r="1.5" fill="#654321"/>
  <circle cx="12" cy="32" r="1.5" fill="#654321"/>
  <circle cx="20" cy="32" r="1.5" fill="#654321"/>
  <circle cx="44" cy="32" r="1.5" fill="#654321"/>
  <circle cx="52" cy="32" r="1.5" fill="#654321"/>
  <circle cx="28" cy="48" r="1.5" fill="#654321"/>
  <circle cx="36" cy="48" r="1.5" fill="#654321"/>
  <circle cx="32" cy="52" r="1.5" fill="#654321"/>
</svg>
